<?xml version="1.0" standalone="no"?>
<!DOCTYPE svg PUBLIC "-//W3C//DTD SVG 20010904//EN"
 "http://www.w3.org/TR/2001/REC-SVG-20010904/DTD/svg10.dtd">
<svg version="1.0" xmlns="http://www.w3.org/2000/svg"
 width="213.000000pt" height="213.000000pt" viewBox="0 0 213.000000 213.000000"
 preserveAspectRatio="xMidYMid meet">
<metadata>
Created by potrace 1.11, written by Peter Selinger 2001-2013
</metadata>
<g transform="translate(0.000000,213.000000) scale(0.100000,-0.100000)"
fill="#000000" stroke="none">
<path d="M0 1065 l0 -975 575 0 c316 0 575 2 575 5 0 2 -26 33 -58 68 -78 87
-252 349 -252 381 0 2 28 -23 62 -56 82 -79 119 -103 268 -178 69 -34 136 -71
149 -81 13 -11 32 -19 42 -19 23 0 23 -3 4 -66 -8 -27 -15 -50 -15 -51 0 -2
176 -3 390 -3 l390 0 0 975 0 975 -1065 0 -1065 0 0 -975z m695 525 c3 -5 -1
-10 -10 -10 -9 0 -13 5 -10 10 3 6 8 10 10 10 2 0 7 -4 10 -10z m-43 -72 c-2
-10 -8 -18 -13 -18 -5 0 -9 8 -9 18 0 10 6 19 14 19 8 0 11 -8 8 -19z m-1 -71
c-13 -13 -15 1 -4 30 7 17 8 17 11 -1 2 -10 -1 -23 -7 -29z m326 -199 c-3 -8
-6 -5 -6 6 -1 11 2 17 5 13 3 -3 4 -12 1 -19z m-334 -25 c-7 -2 -19 -2 -25 0
-7 3 -2 5 12 5 14 0 19 -2 13 -5z m-16 -155 c-3 -8 -6 -5 -6 6 -1 11 2 17 5
13 3 -3 4 -12 1 -19z m153 8 c0 -2 -7 -7 -16 -10 -8 -3 -12 -2 -9 4 6 10 25
14 25 6z m681 -833 c13 -15 12 -15 -8 -4 -24 12 -29 21 -14 21 5 0 15 -7 22
-17z"/>
</g>
</svg>
